<svg width="30" height="31" viewBox="0 0 30 31" fill="none" xmlns="http://www.w3.org/2000/svg">
<g clip-path="url(#clip0_381_4750)">
<path d="M15 30.5C18.9782 30.5 22.7936 28.9196 25.6066 26.1066C28.4196 23.2936 30 19.4782 30 15.5C30 11.5218 28.4196 7.70644 25.6066 4.8934C22.7936 2.08035 18.9782 0.5 15 0.5C11.0218 0.5 7.20644 2.08035 4.3934 4.8934C1.58035 7.70644 0 11.5218 0 15.5C0 19.4782 1.58035 23.2936 4.3934 26.1066C7.20644 28.9196 11.0218 30.5 15 30.5ZM15 3.3125C18.2323 3.3125 21.3323 4.59654 23.6179 6.88214C25.9035 9.16774 27.1875 12.2677 27.1875 15.5C27.1875 18.7323 25.9035 21.8323 23.6179 24.1179C21.3323 26.4035 18.2323 27.6875 15 27.6875C11.7677 27.6875 8.66774 26.4035 6.38214 24.1179C4.09654 21.8323 2.8125 18.7323 2.8125 15.5C2.8125 12.2677 4.09654 9.16774 6.38214 6.88214C8.66774 4.59654 11.7677 3.3125 15 3.3125ZM20.6287 23.3731C19.4812 21.4644 17.3906 20.1875 15 20.1875C12.6094 20.1875 10.5206 21.4644 9.37125 23.3731L6.96 21.9256C8.59875 19.1994 11.5856 17.375 15 17.375C18.4144 17.375 21.4013 19.1994 23.04 21.9256L20.6287 23.3731ZM22.4719 8.71063C22.532 8.9518 22.4938 9.20698 22.3659 9.42005C22.2379 9.63312 22.0305 9.78664 21.7894 9.84688C21.2738 9.97813 20.6606 10.2012 20.1206 10.4731C20.3709 10.7398 20.5376 11.074 20.6 11.4344C20.6625 11.7947 20.6179 12.1655 20.4719 12.5009C20.3259 12.8362 20.0848 13.1214 19.7784 13.3212C19.4721 13.521 19.1139 13.6266 18.7481 13.625C18.2508 13.625 17.7739 13.4275 17.4223 13.0758C17.0707 12.7242 16.8731 12.2473 16.8731 11.75L16.8769 11.6488C16.9369 10.2594 18.2006 9.335 19.2675 8.8025C20.2856 8.29437 21.2925 8.03937 21.3337 8.02812C21.5749 7.96802 21.8301 8.00616 22.0432 8.13414C22.2562 8.26212 22.4116 8.46948 22.4719 8.71063ZM7.52812 8.71063C7.58836 8.46948 7.74188 8.26212 7.95495 8.13414C8.16802 8.00616 8.4232 7.96802 8.66437 8.02812C8.7075 8.03937 9.7125 8.2925 10.7306 8.8025C11.7956 9.335 13.0613 10.2575 13.1213 11.6488L13.125 11.75C13.1251 12.0555 13.0505 12.3564 12.9078 12.6266C12.765 12.8967 12.5584 13.1279 12.306 13.2999C12.0535 13.472 11.7628 13.5798 11.4592 13.6139C11.1556 13.648 10.8482 13.6073 10.5639 13.4955C10.2796 13.3837 10.0269 13.2042 9.82776 12.9724C9.62867 12.7407 9.48922 12.4638 9.42156 12.1658C9.3539 11.8679 9.36006 11.5579 9.43953 11.2629C9.51899 10.9679 9.66934 10.6968 9.8775 10.4731C9.34437 10.2073 8.78513 9.99744 8.20875 9.84688C7.9676 9.78664 7.76025 9.63312 7.63226 9.42005C7.50428 9.20698 7.46802 8.9518 7.52812 8.71063Z" fill="#F24E1E"/>
</g>
<defs>
<clipPath id="clip0_381_4750">
<rect width="30" height="30" fill="white" transform="translate(0 0.5)"/>
</clipPath>
</defs>
</svg>
