<svg width="30" height="31" viewBox="0 0 30 31" fill="none" xmlns="http://www.w3.org/2000/svg">
<path d="M15.0001 1.09961C11.181 1.09961 7.51828 2.61675 4.81776 5.31727C2.11724 8.0178 0.600098 11.6805 0.600098 15.4996C0.600196 17.3906 0.972761 19.2631 1.69652 21.0102C2.42028 22.7572 3.48106 24.3446 4.81829 25.6817C6.15552 27.0188 7.74302 28.0794 9.49015 28.803C11.2373 29.5266 13.1098 29.899 15.0008 29.8989C16.8919 29.8988 18.7644 29.5262 20.5114 28.8024C22.2585 28.0787 23.8459 27.0179 25.183 25.6807C26.5201 24.3434 27.5807 22.7559 28.3042 21.0088C29.0278 19.2617 29.4002 17.3891 29.4001 15.4981C29.4001 7.54661 22.9516 1.09961 15.0001 1.09961ZM15.0001 26.8981C13.4921 26.9154 11.9957 26.6333 10.5975 26.0682C9.19932 25.5031 7.92715 24.6662 6.85468 23.606C5.78221 22.5457 4.93077 21.2833 4.34966 19.8916C3.76855 18.5 3.46933 17.0069 3.46933 15.4989C3.46933 13.9908 3.76855 12.4977 4.34966 11.1061C4.93077 9.71447 5.78221 8.45198 6.85468 7.39174C7.92715 6.33151 9.19932 5.4946 10.5975 4.92949C11.9957 4.36438 13.4921 4.08231 15.0001 4.09961C16.5081 4.08231 18.0045 4.36438 19.4027 4.92949C20.8009 5.4946 22.073 6.33151 23.1455 7.39174C24.218 8.45198 25.0694 9.71447 25.6505 11.1061C26.2316 12.4977 26.5309 13.9908 26.5309 15.4989C26.5309 17.0069 26.2316 18.5 25.6505 19.8916C25.0694 21.2833 24.218 22.5457 23.1455 23.606C22.073 24.6662 20.8009 25.5031 19.4027 26.0682C18.0045 26.6333 16.5081 26.9154 15.0001 26.8981ZM11.2516 15.1246C12.4936 15.1246 13.5001 13.9501 13.5001 12.4996C13.5001 11.0491 12.4921 9.87461 11.2501 9.87461C10.0081 9.87461 9.0001 11.0491 9.0001 12.4996C9.0001 13.9501 10.0081 15.1246 11.2516 15.1246ZM18.7501 15.1246C19.9936 15.1246 21.0001 13.9501 21.0001 12.4996C21.0001 11.0491 19.9921 9.87461 18.7501 9.87461C17.5081 9.87461 16.5001 11.0506 16.5001 12.4996C16.5001 13.9486 17.5081 15.1246 18.7501 15.1246ZM21.5116 17.5036C21.2469 17.37 20.9403 17.3455 20.6577 17.4352C20.3751 17.5249 20.1388 17.7218 19.9996 17.9836C19.9486 18.0826 18.6961 20.3731 15.0016 20.3731C11.3251 20.3731 10.0651 18.1036 10.0021 17.9851C9.86724 17.7188 9.63209 17.5169 9.3484 17.4239C9.0647 17.331 8.75569 17.3545 8.48935 17.4894C8.223 17.6242 8.02114 17.8594 7.92817 18.1431C7.8352 18.4268 7.85874 18.7358 7.9936 19.0021C8.0686 19.1506 9.8656 22.6231 15.0016 22.6231C20.1391 22.6231 21.9331 19.1491 22.0066 19.0006C22.1388 18.7363 22.1609 18.4305 22.0681 18.1499C21.9754 17.8694 21.7753 17.637 21.5116 17.5036Z" fill="#4ECB71"/>
</svg>
