<svg width="30" height="31" viewBox="0 0 30 31" fill="none" xmlns="http://www.w3.org/2000/svg">
<g clip-path="url(#clip0_381_4753)">
<path d="M15 30.5C11.0218 30.5 7.20644 28.9196 4.3934 26.1066C1.58035 23.2936 0 19.4782 0 15.5C0 11.5218 1.58035 7.70644 4.3934 4.8934C7.20644 2.08035 11.0218 0.5 15 0.5C18.9782 0.5 22.7936 2.08035 25.6066 4.8934C28.4196 7.70644 30 11.5218 30 15.5C30 19.4782 28.4196 23.2936 25.6066 26.1066C22.7936 28.9196 18.9782 30.5 15 30.5ZM15 27.5C18.1826 27.5 21.2348 26.2357 23.4853 23.9853C25.7357 21.7348 27 18.6826 27 15.5C27 12.3174 25.7357 9.26515 23.4853 7.01472C21.2348 4.76428 18.1826 3.5 15 3.5C11.8174 3.5 8.76515 4.76428 6.51472 7.01472C4.26428 9.26515 3 12.3174 3 15.5C3 18.6826 4.26428 21.7348 6.51472 23.9853C8.76515 26.2357 11.8174 27.5 15 27.5ZM9.75 14C9.15326 14 8.58097 13.7629 8.15901 13.341C7.73705 12.919 7.5 12.3467 7.5 11.75C7.5 11.1533 7.73705 10.581 8.15901 10.159C8.58097 9.73705 9.15326 9.5 9.75 9.5C10.3467 9.5 10.919 9.73705 11.341 10.159C11.7629 10.581 12 11.1533 12 11.75C12 12.3467 11.7629 12.919 11.341 13.341C10.919 13.7629 10.3467 14 9.75 14ZM20.25 14C19.6533 14 19.081 13.7629 18.659 13.341C18.2371 12.919 18 12.3467 18 11.75C18 11.1533 18.2371 10.581 18.659 10.159C19.081 9.73705 19.6533 9.5 20.25 9.5C20.8467 9.5 21.419 9.73705 21.841 10.159C22.2629 10.581 22.5 11.1533 22.5 11.75C22.5 12.3467 22.2629 12.919 21.841 13.341C21.419 13.7629 20.8467 14 20.25 14ZM10.5 20H19.5C19.8978 20 20.2794 20.158 20.5607 20.4393C20.842 20.7206 21 21.1022 21 21.5C21 21.8978 20.842 22.2794 20.5607 22.5607C20.2794 22.842 19.8978 23 19.5 23H10.5C10.1022 23 9.72064 22.842 9.43934 22.5607C9.15804 22.2794 9 21.8978 9 21.5C9 21.1022 9.15804 20.7206 9.43934 20.4393C9.72064 20.158 10.1022 20 10.5 20Z" fill="#FFC700"/>
</g>
<defs>
<clipPath id="clip0_381_4753">
<rect width="30" height="30" fill="white" transform="translate(0 0.5)"/>
</clipPath>
</defs>
</svg>
