<svg width="20" height="21" viewBox="0 0 20 21" fill="none" xmlns="http://www.w3.org/2000/svg">
<path d="M2.5 5.50033L5 2.16699H15L17.5 5.50033M2.5 5.50033V17.167C2.5 17.609 2.67559 18.0329 2.98816 18.3455C3.30072 18.6581 3.72464 18.8337 4.16667 18.8337H15.8333C16.2754 18.8337 16.6993 18.6581 17.0118 18.3455C17.3244 18.0329 17.5 17.609 17.5 17.167V5.50033M2.5 5.50033H17.5M13.3333 8.83366C13.3333 9.71771 12.9821 10.5656 12.357 11.1907C11.7319 11.8158 10.8841 12.167 10 12.167C9.11595 12.167 8.2681 11.8158 7.64298 11.1907C7.01786 10.5656 6.66667 9.71771 6.66667 8.83366" stroke="white" stroke-width="1.6" stroke-linecap="round" stroke-linejoin="round"/>
</svg>
